<svg xmlns:rdf="http://www.w3.org/1999/02/22-rdf-syntax-ns#" xmlns="http://www.w3.org/2000/svg" viewBox="0 0 44.066661 39.999998" height="14" width="14" version="1.1" xmlns:cc="http://creativecommons.org/ns#" xmlns:dc="http://purl.org/dc/elements/1.1/">
<g transform="translate(-223.681 -392.362)">
<g>
<path fill="#0f0" d="m223.681 412.362 0.86667-1.33333q0.2-0.33333 0.66666-1 0.46667-0.66667 1.63334-2.1 1.16666-1.46667 2.46666-2.86667 1.33334-1.4 3.23334-3 1.93333-1.6 3.9-2.76666 1.96666-1.2 4.4-1.96667 2.46666-0.8 4.86666-0.8 2.03334 0 4.03334 0.56667l1.23333-4.73334h4.93333l-10.4667 40h-4.93334l1.23334-4.76666q-2.73334-0.7-5.5-2.36667-2.76667-1.7-4.66667-3.4-1.9-1.73333-3.66667-3.73333-1.73333-2.03334-2.36666-2.96667-0.66667-0.93333-1-1.43333l-0.86667-1.33334zm6.03333 0q7 9.4 13.1 11.2l1.23334-4.7q-3.56667-0.6-5.96667-3.36666-2.36667-2.8-2.36667-6.46667 0-2.83333 1.53334-5.26667-3.4 2.9-7.53334 8.6zm8.56667-1.86666q1.63333 4.13333 5.13333 6.36666l1.56667-1.56666 0.76667-2.9q-1-0.93334-1.96667-2.3-0.96667-1.36667-1.46667-2.26667l-0.46666-0.86667-3.56667 3.53334zm13.4333 16.5 1.26667-4.83334q0.73333-0.5 1.46667-1.13333 0.76666-0.63333 1.53333-1.46667 0.8-0.83333 1.36667-1.46666 0.56666-0.63334 1.36666-1.66667 0.8-1.06667 1.1-1.46667 0.33334-0.4 1.1-1.46666 0.8-1.06667 0.83334-1.13334-3.23334-4.23333-4.66667-5.83333l1.3-4.86667q2.23333 1.8 4.36667 4.2 2.16666 2.36667 2.93333 3.43334 0.76667 1.06666 1.2 1.73333l0.86667 1.33333-0.86667 1.33334q-0.23333 0.4-0.86667 1.26666-0.6 0.86667-2.1 2.66667-1.5 1.76667-3.2 3.4-1.66666 1.63333-4.13333 3.33333-2.43333 1.7-4.86667 2.63334z"/>
</g>
</g>
</svg>
