<svg xmlns:rdf="http://www.w3.org/1999/02/22-rdf-syntax-ns#" xmlns="http://www.w3.org/2000/svg" viewBox="0 0 40 40.000001" height="14" width="14" version="1.1" xmlns:cc="http://creativecommons.org/ns#" xmlns:dc="http://purl.org/dc/elements/1.1/">
<g transform="translate(-225.714 -392.362)">
<g>
<path fill="#0f0" d="m228.481 422.362q-2.66667-4.6-2.66667-10t2.66667-9.96666q2.66667-4.6 7.23333-7.26667 4.6-2.66667 10-2.66667t9.96667 2.66667q4.6 2.66667 7.26667 7.26667 2.66666 4.56666 2.66666 9.96666t-2.66666 10q-2.66667 4.56667-7.26667 7.23334-4.56667 2.66666-9.96667 2.66666t-10-2.66666q-4.56666-2.66667-7.23333-7.23334zm10.5667 0h13.3333v-3.33333h-3.33333v-10h-10v3.33333h3.33333v6.66667h-3.33333v3.33333zm3.33333-16.6667h6.66667v-3.33334h-6.66667v3.33334z"/>
</g>
</g>
</svg>
