<svg xmlns:rdf="http://www.w3.org/1999/02/22-rdf-syntax-ns#" xmlns="http://www.w3.org/2000/svg" viewBox="0 0 40 40.000001" height="40" width="40" version="1.1" xmlns:cc="http://creativecommons.org/ns#" xmlns:dc="http://purl.org/dc/elements/1.1/">
<g transform="translate(-225.714 -392.362)">
<g>
<path fill="#0f0" d="m228.481 422.362q-2.66667-4.6-2.66667-10t2.66667-9.96666q2.66667-4.6 7.23333-7.26667 4.6-2.66667 10-2.66667t9.96667 2.66667q4.6 2.66667 7.26667 7.26667 2.66666 4.56666 2.66666 9.96666t-2.66666 10q-2.66667 4.56667-7.26667 7.23334-4.56667 2.66666-9.96667 2.66666t-10-2.66666q-4.56666-2.66667-7.23333-7.23334zm5.43333-5.3 7.1 7.1 4.7-4.73333 4.7 4.73333 7.1-7.1-4.73333-4.7 4.73333-4.7-7.1-7.06666-4.7 4.7-4.7-4.73334-7.06666 7.1 4.7 4.7-4.73334 4.7z"/>
</g>
</g>
</svg>
