<svg xmlns:rdf="http://www.w3.org/1999/02/22-rdf-syntax-ns#" xmlns="http://www.w3.org/2000/svg" viewBox="0 0 39.833331 39.833334" height="14" width="14" version="1.1" xmlns:cc="http://creativecommons.org/ns#" xmlns:dc="http://purl.org/dc/elements/1.1/">
<g transform="translate(-225.881 -392.529)">
<g>
<path fill="#0f0" d="m225.881 412.462q0-4.06666 1.56667-7.73333 1.6-3.7 4.26666-6.36667 2.66667-2.66666 6.33334-4.23333 3.7-1.6 7.76666-1.6 4.03334 0 7.7 1.6 3.7 1.56667 6.36667 4.23333 2.66667 2.66667 4.23333 6.36667 1.6 3.66667 1.6 7.73333 0 5.4-2.66666 10-2.66667 4.56667-7.26667 7.23334-4.56667 2.66666-9.96667 2.66666t-10-2.66666q-4.6-2.66667-7.26666-7.23334-2.66667-4.6-2.66667-10zm8.3-6.1q-0.26667 1.1 0.16667 3.1 0.46666 1.96667 0.26666 2.9 0 0.3 0.56667 1.46667t0.53333 2q0.4 0 0.76667 0.2 0.36667 0.16667 0.76667 0.5 0.4 0.3 0.66666 0.43333 0.8 0.4 3.6 1.4 0.73334 0.26667 1.76667 1.06667 1.03333 0.76667 1.96667 1.26667 0.96666 0.5 1.93333 0.36666 0.26667 0.6-0.5 1.83334-0.76667 1.23333-0.66667 1.9 1.4 2.36666 2.9 2.66666 0 0.2-0.1 0.53334-0.1 0.3-0.13333 0.46666 0 0.16667 0.16667 0.56667 3.46666 0.1 7.36666-3.73333 1-0.96667 1.56667-1.56667t1.13333-1.63333q0.6-1.03334 0.7-2.06667-0.46666-0.3-1.23333-0.3-0.76667-0.0333-1.2-0.26667-0.46667-0.23333-1.63333-0.5-1.16667-0.26666-1.73334-0.63333-0.3 0-1.33333 0.0333-1 0-1.53333 0.0333-0.53334 0.0333-1.3 0.23333-0.76667 0.16667-1.3 0.53333-1.66667 1.16667-2.2 0.4-0.13334-0.0667-0.13334-0.83333 0.0333-0.8 0.0333-0.86667-0.2-0.43333-0.9-0.56666-0.66667-0.13334-0.8-0.23334 0.0667-0.73333-0.0667-1.36666-0.13333-0.63334-0.56667-0.93334-0.4-0.3-1.26666 0.66667-0.76667 0.83333-1.4-0.13333-0.63334-0.93334-0.26667-1.93334 0.2-0.53333 0.73333-0.73333 0.2 0.0333 0.86667 0.0667 0.66667 0 1.1 0.13333 0.46667 0.1 0.66667 0.43333 0.4 0.63334 1.06666 1.26667 0.66667 0.6 1.13334 0.9l0.46666 0.26667q0-0.1 0.3-1.3 0.33334-1.23334 0.2-1.93334-0.13333-0.76666 0.46667-1.46666 0.63333-0.73334 0.76667-1.06667 0.16666-0.46667 0.33333-1.16667t0.26667-1.03333q0.13333-0.33333 0.53333-0.73333 0.4-0.43334 1.13333-0.73334-0.2-0.6 0.33334-1.23333 0.26666 0 0.76666 0.0667 0.53334 0.0333 0.83334 0.0333t0.66666-0.13333q0.4-0.16667 0.7-0.53334-0.33333-0.76666-1.03333-1.4-0.66667-0.66666-1.26667-1-0.56666-0.36666-1.63333-0.9-1.03333-0.53333-1.43333-0.76666 0.36666-1.3 0.0667-1.46667 1.03334 0.43333 1.93334 0.5 0.9 0.0333 1.3-0.13333l0.36666-0.13334q0.23334-1.2-0.56666-1.76666-0.76667-0.6-2.13334-0.96667-1.36666-0.36667-1.86666-0.76667-0.63334 0.1-1.23334 0-0.5 0.4-1.23333 0.7-0.7 0.3-1.13333 0.4-0.43334 0.1-1.46667 0.26667t-1.3 0.2q-0.5 0.1-1.53333 0-1-0.13333-1.5 0.0667-0.7 0.23333-1.73334 0.9-1.03333 0.63333-1.13333 1.13333-0.1 0.36667 0.2 0.76667 0.33333 0.36666 0.3 0.6-0.1 1.13333-0.93333 3.03333-0.8 1.86667-0.96667 2.63333zm8.8-4.53333q0.1-0.4 0.53333-1 0.43334-0.6 0.53334-0.83333 0.33333 0.33333 0.6 0.33333 0.3 0 0.46666-0.2 0.2-0.2 0.5-0.46667 0.3-0.3 0.53334-0.43333 0 0.8 0.56666 2.23333 0.56667 1.4 0.56667 1.43334-0.3-0.0667-1.03333-0.16667-0.73334-0.1-1.2-0.16667-0.46667-0.0667-1.06667-0.26666-0.6-0.2-1-0.46667zm5.8-2.9h0.0333-0.0333z"/>
</g>
</g>
</svg>
