<svg xmlns:rdf="http://www.w3.org/1999/02/22-rdf-syntax-ns#" xmlns="http://www.w3.org/2000/svg" height="14" width="14" version="1.1" xmlns:cc="http://creativecommons.org/ns#" xmlns:dc="http://purl.org/dc/elements/1.1/" viewBox="0 0 36.666668 40.000001">
<g transform="translate(-225.714 -392.362)">
<g>
<path fill="#0f0" d="m225.714 429.029v-20q0-1.36667 0.96667-2.33333 1-1 2.36667-1h3.33333v-6.66667q0-2.73333 1.96667-4.7 1.96666-1.96667 4.7-1.96667h10q2.73333 0 4.7 1.96667 1.96666 1.96667 1.96666 4.7v6.66667h3.33334q1.36666 0 2.33333 1 1 0.96666 1 2.33333v20q0 1.36667-1 2.36667-0.96667 0.96666-2.33333 0.96666h-30q-1.36667 0-2.36667-0.96666-0.96667-1-0.96667-2.36667zm13.3333-23.3333h10v-5q0-0.7-0.5-1.16667-0.46667-0.5-1.16667-0.5h-6.66667q-0.7 0-1.2 0.5-0.46666 0.46667-0.46666 1.16667v5z"/>
</g>
</g>
</svg>
