<svg xmlns:rdf="http://www.w3.org/1999/02/22-rdf-syntax-ns#" xmlns="http://www.w3.org/2000/svg" viewBox="0 0 40.7 37.6" height="14" width="14" version="1.1" xmlns:cc="http://creativecommons.org/ns#" xmlns:dc="http://purl.org/dc/elements/1.1/">
<g transform="translate(-225.714 -394.762)">
<g>
<path fill="#0f0" d="m225.714 419.029v-10q0-5.5 3.9-9.4 3.93334-3.93333 9.43334-3.93333 12.2 0.2 13.2333 0.46666l-6.2 6.2h-10.3667q-1.36666 0-2.36666 1-0.96667 0.96667-0.96667 2.33334v16.6667q0 1.36667 0.96667 2.36667 1 0.96667 2.36666 0.96667h16.6667q1.36667 0 2.33333-0.96667 1-1 1-2.36667v-4.16666l6.66667-6.66667v7.5q0 5.5-3.93333 9.43333-3.9 3.9-9.4 3.9h-10q-5.5 0-9.43334-3.9-3.9-3.93333-3.9-9.43333zm14.5333 1.96667 5.36666-1.66667 13.7333-13.7333-3.8-3.76667-13.5 13.5-1.8 5.66667zm18.6333-22.4667 3.76667 3.76667 3.76666-3.76667-0.7-2.83333-3.06666-0.93334-3.76667 3.76667z"/>
</g>
</g>
</svg>
