<svg xmlns:rdf="http://www.w3.org/1999/02/22-rdf-syntax-ns#" xmlns="http://www.w3.org/2000/svg" viewBox="0 0 39.933334 39.933335" height="14" width="14" version="1.1" xmlns:cc="http://creativecommons.org/ns#" xmlns:dc="http://purl.org/dc/elements/1.1/">
<g transform="translate(-225.748 -392.396)">
<g>
<path fill="#0f0" d="m227.314 420.129q-1.56666-3.7-1.56666-7.76667 0-4.06666 1.56666-7.76666 1.6-3.7 4.26667-6.36667t6.36667-4.23333q3.7-1.6 7.76666-1.6 4.06667 0 7.76667 1.6 3.7 1.56666 6.36667 4.23333 2.66666 2.66667 4.23333 6.36667 1.6 3.7 1.6 7.76666 0 4.06667-1.6 7.76667-1.56667 3.7-4.23333 6.36667-2.66667 2.66666-6.36667 4.26666-3.7 1.56667-7.76667 1.56667-4.06666 0-7.76666-1.56667-3.7-1.6-6.36667-4.26666-2.66667-2.66667-4.26667-6.36667zm8.7-17.4667q-4.03333 4.03334-4.03333 9.7 0 5.66667 4.03333 9.7 4.03334 4.03334 9.7 4.03334 5.66667 0 9.7-4.03334 4.03334-4.03333 4.03334-9.7 0-5.66666-4.03334-9.7-4.03333-4.03333-9.7-4.03333-5.66666 0-9.7 4.03333zm1.36667 9.7h5v-10h6.66667v10h5l-8.33334 10-8.33333-10z"/>
</g>
</g>
</svg>
