<svg xmlns:rdf="http://www.w3.org/1999/02/22-rdf-syntax-ns#" xmlns="http://www.w3.org/2000/svg" viewBox="0 0 40 40.000001" height="40" width="40" version="1.1" xmlns:cc="http://creativecommons.org/ns#" xmlns:dc="http://purl.org/dc/elements/1.1/">
<g transform="translate(-225.714 -392.362)">
<g>
<path fill="#0f0" d="m228.514 422.329q-2.66666-4.56667-2.66666-9.96667t2.66666-9.96666q2.66667-4.56667 7.23334-7.23334 4.56666-2.66666 9.96666-2.66666t9.96667 2.66666q4.56667 2.66667 7.23333 7.23334 2.66667 4.56666 2.66667 9.96666t-2.66667 9.96667q-2.66666 4.56667-7.23333 7.23333-4.56667 2.66667-9.96667 2.66667t-9.96666-2.66667q-4.56667-2.66666-7.23334-7.23333zm7.43334-19.7q-4.03334 4.03333-4.03334 9.73333t4.03334 9.76667q4.06666 4.03333 9.76666 4.03333t9.73334-4.03333q4.06666-4.06667 4.06666-9.76667t-4.06666-9.73333q-4.03334-4.06667-9.73334-4.06667t-9.76666 4.06667zm1.63333 14.2333 4.5-4.5-4.5-4.5 3.63333-3.63333 4.5 4.5 4.5-4.5 3.63334 3.63333-4.5 4.5 4.5 4.5-3.63334 3.63334-4.5-4.5-4.5 4.5-3.63333-3.63334z"/>
</g>
</g>
</svg>
