<svg xmlns:rdf="http://www.w3.org/1999/02/22-rdf-syntax-ns#" xmlns="http://www.w3.org/2000/svg" viewBox="0 0 39.900001 39.900002" height="14" width="14" version="1.1" xmlns:cc="http://creativecommons.org/ns#" xmlns:dc="http://purl.org/dc/elements/1.1/">
<g transform="translate(-226.481 -393.129)">
<g>
<path fill="#0f0" d="m231.214 420.662q-4.73333-4.73333-4.73333-11.4 0-6.66666 4.73333-11.4 4.73334-4.73333 11.4-4.73333 6.66667 0 11.4 4.73333 4.73334 4.73334 4.73334 11.4 0 4.73334-2.6 8.7l10 10q0.23333 0.26667 0.23333 0.6 0 0.33334-0.23333 0.6l-3.63334 3.63334q-0.26666 0.23333-0.6 0.23333-0.33333 0-0.6-0.23333l-10-10q-3.96666 2.6-8.7 2.6-6.66666 0-11.4-4.73334zm3.6-19.1667q-3.23333 3.23333-3.23333 7.76666 0 4.53334 3.23333 7.76667 3.23334 3.23333 7.8 3.23333 4.56667 0 7.76667-3.2 3.23333-3.23333 3.23333-7.8 0-4.56666-3.23333-7.76666-3.2-3.23334-7.76667-3.23334-4.56666 0-7.8 3.23334z"/>
</g>
</g>
</svg>
