<svg xmlns:rdf="http://www.w3.org/1999/02/22-rdf-syntax-ns#" xmlns="http://www.w3.org/2000/svg" viewBox="0 0 79.999998 30.033334" height="14" width="28" version="1.1" xmlns:cc="http://creativecommons.org/ns#" xmlns:dc="http://purl.org/dc/elements/1.1/">
<g transform="translate(-225.714 -395.696)">
<g fill="#0f0">
<path d="m225.714 425.696q0.2-4.4 1.36667-7.93334 1.16667-3.56666 3.43333-6.43333 2.3-2.9 6.13334-4.6 3.86666-1.73333 9.06666-2v-9.03333l20 15.1-20 14.9333v-10.0333q-3.16666 0.0667-6.1 0.66666-2.93333 0.6-5.66666 1.73334-2.73334 1.13333-4.9 3.1-2.16667 1.93333-3.33334 4.5z"/>
<path d="m265.714 425.696q0.2-4.4 1.36667-7.93334 1.16667-3.56666 3.43333-6.43333 2.3-2.9 6.13334-4.6 3.86666-1.73333 9.06666-2v-9.03333l20 15.1-20 14.9333v-10.0333q-3.16666 0.0667-6.1 0.66666-2.93333 0.6-5.66666 1.73334-2.73334 1.13333-4.9 3.1-2.16667 1.93333-3.33334 4.5z"/>
</g>
</g>
</svg>
