<svg xmlns:rdf="http://www.w3.org/1999/02/22-rdf-syntax-ns#" xmlns="http://www.w3.org/2000/svg" viewBox="0 0 39.933334 39.933335" height="14" width="14" version="1.1" xmlns:cc="http://creativecommons.org/ns#" xmlns:dc="http://purl.org/dc/elements/1.1/">
<g transform="translate(-225.748 -392.396)">
<g>
<path fill="#0f0" d="m225.714 429.029v-3.33333q0-1.36667 0.96667-2.33334 1-1 2.36667-1h33.3333q1.36667 0 2.33333 1 1 0.96667 1 2.33334v3.33333q0 1.36667-1 2.36667-0.96666 0.96666-2.33333 0.96666h-33.3333q-1.36667 0-2.36667-0.96666-0.96667-1-0.96667-2.36667zm1.03334-10 5.73333-24.6333q0.16667-0.73334 0.76667-1.36667 0.6-0.66667 1.26666-0.66667h22.4q0.63334 0 1.23334 0.76667 0.63333 0.73333 0.8 1.5l5.73333 24.4h-37.9333zm25.6333 10h3.33333v-3.33333h-3.33333v3.33333zm6.66667 0h3.33333v-3.33333h-3.33333v3.33333z"/>
</g>
</g>
</svg>
