<svg xmlns:rdf="http://www.w3.org/1999/02/22-rdf-syntax-ns#" xmlns="http://www.w3.org/2000/svg" viewBox="0 0 82.466657 36.666666" height="14" width="28" version="1.1" xmlns:cc="http://creativecommons.org/ns#" xmlns:dc="http://purl.org/dc/elements/1.1/">
<g transform="translate(-222.348 -395.696)">
<g fill="#0f0">
<path d="m222.348 415.696v-3.33334h6.7v-2.5l5.53333 4.16667-5.53333 4.16667v-2.5h-6.7zm13.3667 16.6667h3.33334v-36.6667h-3.33334v36.6667zm6.66667-1.66666q0 0.66666 0.46667 1.16666 0.5 0.5 1.2 0.5h20q0.66666 0 1.16666-0.5t0.5-1.16666v-3.33334q0-0.7-0.5-1.16666-0.5-0.5-1.16666-0.5h-20q-0.7 0-1.2 0.5-0.46667 0.46666-0.46667 1.16666v3.33334zm0-10q0 0.66666 0.46667 1.16666 0.5 0.5 1.2 0.5h10q0.66666 0 1.16666-0.5t0.5-1.16666v-3.33334q0-0.7-0.5-1.16666-0.5-0.5-1.16666-0.5h-10q-0.7 0-1.2 0.5-0.46667 0.46666-0.46667 1.16666v3.33334zm0-10q0 0.66666 0.46667 1.16666 0.5 0.5 1.2 0.5h16.6667q0.66667 0 1.16667-0.5t0.5-1.16666v-3.33334q0-0.7-0.5-1.16666-0.5-0.5-1.16667-0.5h-16.6667q-0.7 0-1.2 0.5-0.46667 0.46666-0.46667 1.16666v3.33334zm0-10q0 0.66666 0.46667 1.16666 0.5 0.5 1.2 0.5h3.33333q0.66667 0 1.16667-0.5t0.5-1.16666v-3.33334q0-0.7-0.5-1.16666-0.5-0.5-1.16667-0.5h-3.33333q-0.7 0-1.2 0.5-0.46667 0.46666-0.46667 1.16666v3.33334z"/>
<path d="m265.714 419.029v-10q0-5.5 3.9-9.4 3.93334-3.93333 9.43334-3.93333h8.7l0.0667 2.66666q-4.43333 1.06667-7.26666 4h-4.83334q-1.36666 0-2.36666 1-0.96667 0.96667-0.96667 2.33334v16.6667q0 1.36667 0.96667 2.36667 1 0.96667 2.36666 0.96667h16.6667q1.36667 0 2.33333-0.96667 1-1 1-2.36667l6.66667-5.1v1.76667q0 5.5-3.93333 9.43333-3.9 3.9-9.4 3.9h-10q-5.5 0-9.43334-3.9-3.9-3.93333-3.9-9.43333zm14.1-4.13333q1-1.26667 2.7-2.13334 1.73334-0.86666 3.43334-1.16666 1.73333-0.33334 3.3-0.46667 1.6-0.16667 2.6-0.13333l0.96666 0.0333v6.96667l12-10.8-11.9667-10.6v7.2q-0.23334 0-0.63334 0.0333t-1.6 0.26667q-1.2 0.23333-2.33333 0.63333-1.1 0.36667-2.53333 1.23333-1.43334 0.83334-2.56667 1.96667-1.1 1.1-2.06667 2.93333-0.93333 1.8-1.3 4.03334z"/>
</g>
</g>
</svg>
